<svg xmlns="http://www.w3.org/2000/svg" width="128" height="128" viewBox="0 0 24 24">
  <path fill="#ffffff" d="M19 3h-4.18C14.4 1.84 13.3 1 12 1S9.6 1.84 9.18 3H5c-1.1 0-2 .9-2 2v14c0 1.1.9 2 2 2h14c1.1 0 2-.9 2-2V5c0-1.1-.9-2-2-2m-7 0c.55 0 1 .45 1 1s-.45 1-1 1s-1-.45-1-1s.45-1 1-1m7 16H5V5h2v3h10V5h2v14m-7-3h-2v-2h2v2m2.07-7.75l-.9.92C12.45 9.9 12 10.5 12 12h-2v-.5c0-1.1.45-2.1 1.17-2.83l1.24-1.26c.37-.36.59-.86.59-1.41c0-1.1-.9-2-2-2S9 4.9 9 6H7c0-2.21 1.79-4 4-4s4 1.79 4 4c0 .88-.36 1.68-.93 2.25Z"/>
</svg>
